<?xml version="1.0" encoding="UTF-8"?>
<svg xmlns="http://www.w3.org/2000/svg" version="1.1" width="224" height="224" viewBox="0 0 224 224"><rect x="0" y="0" width="224" height="224" fill="#ffffff"/><g transform="scale(6.054)"><g transform="translate(0,0)"><path fill-rule="evenodd" d="M9 0L9 1L10 1L10 0ZM12 0L12 2L13 2L13 4L12 4L12 3L11 3L11 2L9 2L9 4L8 4L8 5L10 5L10 4L12 4L12 8L11 8L11 6L10 6L10 8L9 8L9 6L8 6L8 8L6 8L6 9L9 9L9 10L8 10L8 12L10 12L10 13L7 13L7 12L6 12L6 11L7 11L7 10L6 10L6 11L5 11L5 10L4 10L4 8L2 8L2 9L0 9L0 10L1 10L1 12L0 12L0 17L2 17L2 18L0 18L0 19L1 19L1 20L0 20L0 24L1 24L1 22L3 22L3 23L2 23L2 24L4 24L4 25L2 25L2 26L1 26L1 27L0 27L0 28L1 28L1 27L2 27L2 26L3 26L3 29L4 29L4 26L5 26L5 23L8 23L8 24L6 24L6 25L7 25L7 26L6 26L6 27L5 27L5 28L6 28L6 29L8 29L8 31L10 31L10 29L11 29L11 30L12 30L12 31L11 31L11 34L13 34L13 35L11 35L11 36L10 36L10 33L8 33L8 35L9 35L9 37L14 37L14 36L13 36L13 35L16 35L16 37L17 37L17 36L18 36L18 37L20 37L20 36L18 36L18 35L19 35L19 33L18 33L18 35L16 35L16 34L17 34L17 31L16 31L16 32L15 32L15 30L12 30L12 29L13 29L13 28L14 28L14 29L16 29L16 30L18 30L18 31L19 31L19 32L20 32L20 34L21 34L21 32L23 32L23 31L22 31L22 29L21 29L21 27L19 27L19 26L22 26L22 28L24 28L24 26L25 26L25 24L24 24L24 25L23 25L23 23L24 23L24 21L23 21L23 20L25 20L25 19L27 19L27 20L26 20L26 21L25 21L25 23L26 23L26 22L27 22L27 21L30 21L30 20L28 20L28 18L32 18L32 17L30 17L30 16L29 16L29 15L31 15L31 14L32 14L32 15L33 15L33 13L34 13L34 15L35 15L35 13L36 13L36 14L37 14L37 13L36 13L36 12L37 12L37 11L34 11L34 10L35 10L35 9L34 9L34 10L31 10L31 8L29 8L29 6L28 6L28 7L27 7L27 6L26 6L26 5L28 5L28 4L29 4L29 2L28 2L28 4L26 4L26 3L27 3L27 0L26 0L26 1L25 1L25 2L24 2L24 0L23 0L23 4L21 4L21 5L20 5L20 7L21 7L21 5L22 5L22 8L19 8L19 5L17 5L17 4L20 4L20 3L21 3L21 2L20 2L20 0L19 0L19 1L18 1L18 0L17 0L17 1L16 1L16 0L15 0L15 2L14 2L14 0ZM17 1L17 2L15 2L15 3L14 3L14 5L15 5L15 7L14 7L14 6L13 6L13 7L14 7L14 8L15 8L15 9L18 9L18 6L17 6L17 8L16 8L16 5L15 5L15 4L17 4L17 2L18 2L18 3L20 3L20 2L18 2L18 1ZM24 3L24 4L25 4L25 5L24 5L24 6L23 6L23 8L22 8L22 10L25 10L25 11L24 11L24 12L23 12L23 13L20 13L20 14L18 14L18 16L17 16L17 15L16 15L16 16L15 16L15 17L13 17L13 18L12 18L12 16L14 16L14 15L15 15L15 13L13 13L13 12L14 12L14 11L15 11L15 10L14 10L14 9L13 9L13 8L12 8L12 9L10 9L10 11L11 11L11 10L12 10L12 11L13 11L13 12L12 12L12 13L13 13L13 14L11 14L11 13L10 13L10 14L8 14L8 15L6 15L6 14L7 14L7 13L5 13L5 11L4 11L4 12L3 12L3 13L5 13L5 14L4 14L4 15L6 15L6 16L8 16L8 17L6 17L6 18L5 18L5 17L4 17L4 16L3 16L3 18L2 18L2 19L3 19L3 21L4 21L4 23L5 23L5 22L8 22L8 21L4 21L4 19L5 19L5 20L8 20L8 19L9 19L9 20L12 20L12 21L13 21L13 23L10 23L10 22L11 22L11 21L9 21L9 23L10 23L10 24L9 24L9 25L8 25L8 26L7 26L7 27L6 27L6 28L8 28L8 26L9 26L9 27L10 27L10 28L9 28L9 29L10 29L10 28L11 28L11 29L12 29L12 28L11 28L11 27L10 27L10 26L12 26L12 25L13 25L13 26L14 26L14 25L15 25L15 24L14 24L14 23L17 23L17 20L16 20L16 22L14 22L14 21L15 21L15 19L14 19L14 18L16 18L16 16L17 16L17 18L18 18L18 20L19 20L19 21L18 21L18 24L17 24L17 25L20 25L20 24L22 24L22 23L20 23L20 24L19 24L19 22L21 22L21 21L22 21L22 22L23 22L23 21L22 21L22 20L23 20L23 19L25 19L25 18L26 18L26 17L25 17L25 18L23 18L23 16L27 16L27 17L28 17L28 16L27 16L27 15L29 15L29 14L30 14L30 12L31 12L31 13L32 13L32 12L33 12L33 11L31 11L31 10L30 10L30 9L29 9L29 10L28 10L28 12L26 12L26 13L25 13L25 11L26 11L26 9L27 9L27 7L26 7L26 6L25 6L25 5L26 5L26 4L25 4L25 3ZM24 6L24 9L26 9L26 8L25 8L25 6ZM32 8L32 9L33 9L33 8ZM19 9L19 10L20 10L20 12L22 12L22 11L21 11L21 10L20 10L20 9ZM2 10L2 11L3 11L3 10ZM13 10L13 11L14 11L14 10ZM16 10L16 11L17 11L17 13L16 13L16 14L17 14L17 13L18 13L18 12L19 12L19 11L17 11L17 10ZM29 10L29 11L30 11L30 10ZM1 12L1 14L2 14L2 12ZM28 12L28 13L27 13L27 14L29 14L29 12ZM23 13L23 14L22 14L22 15L21 15L21 16L20 16L20 15L19 15L19 19L20 19L20 18L21 18L21 20L22 20L22 19L23 19L23 18L21 18L21 17L22 17L22 15L26 15L26 14L24 14L24 13ZM13 14L13 15L14 15L14 14ZM9 16L9 17L11 17L11 16ZM33 16L33 17L34 17L34 18L33 18L33 19L32 19L32 21L31 21L31 22L30 22L30 24L28 24L28 23L29 23L29 22L28 22L28 23L27 23L27 24L26 24L26 26L27 26L27 24L28 24L28 25L29 25L29 26L30 26L30 27L31 27L31 28L28 28L28 27L27 27L27 28L25 28L25 30L24 30L24 29L23 29L23 30L24 30L24 31L25 31L25 30L27 30L27 28L28 28L28 31L26 31L26 32L28 32L28 34L29 34L29 35L33 35L33 33L34 33L34 37L37 37L37 36L35 36L35 35L36 35L36 34L35 34L35 33L36 33L36 32L37 32L37 29L36 29L36 28L37 28L37 27L36 27L36 28L34 28L34 29L33 29L33 27L35 27L35 26L37 26L37 25L36 25L36 23L33 23L33 22L32 22L32 21L33 21L33 19L34 19L34 18L35 18L35 19L37 19L37 16L36 16L36 18L35 18L35 16ZM3 18L3 19L4 19L4 18ZM6 18L6 19L8 19L8 18ZM1 20L1 21L2 21L2 20ZM13 20L13 21L14 21L14 20ZM35 20L35 21L36 21L36 20ZM31 22L31 24L30 24L30 26L31 26L31 24L33 24L33 23L32 23L32 22ZM34 25L34 26L35 26L35 25ZM15 26L15 27L16 27L16 26ZM17 26L17 29L18 29L18 30L20 30L20 31L21 31L21 30L20 30L20 29L19 29L19 28L18 28L18 26ZM29 29L29 32L32 32L32 29ZM35 29L35 30L34 30L34 33L35 33L35 32L36 32L36 29ZM30 30L30 31L31 31L31 30ZM13 31L13 32L14 32L14 31ZM24 32L24 34L23 34L23 33L22 33L22 35L21 35L21 36L23 36L23 35L25 35L25 37L28 37L28 35L27 35L27 33L26 33L26 35L25 35L25 32ZM13 33L13 34L14 34L14 33ZM15 33L15 34L16 34L16 33ZM29 33L29 34L30 34L30 33ZM29 36L29 37L32 37L32 36ZM0 0L7 0L7 7L0 7ZM1 1L1 6L6 6L6 1ZM2 2L5 2L5 5L2 5ZM30 0L37 0L37 7L30 7ZM31 1L31 6L36 6L36 1ZM32 2L35 2L35 5L32 5ZM0 30L7 30L7 37L0 37ZM1 31L1 36L6 36L6 31ZM2 32L5 32L5 35L2 35Z" fill="#ffffff"/></g></g></svg>
