<?xml version="1.0" encoding="UTF-8"?>
<svg xmlns="http://www.w3.org/2000/svg" version="1.1" width="250" height="250" viewBox="0 0 250 250"><rect x="0" y="0" width="250" height="250" fill="#ffffff"/><g transform="scale(6.757)"><g transform="translate(0,0)"><path fill-rule="evenodd" d="M9 0L9 1L8 1L8 2L10 2L10 3L9 3L9 5L8 5L8 8L4 8L4 9L7 9L7 10L5 10L5 12L4 12L4 10L3 10L3 9L2 9L2 10L3 10L3 12L4 12L4 13L3 13L3 14L2 14L2 15L1 15L1 14L0 14L0 15L1 15L1 16L2 16L2 17L3 17L3 15L4 15L4 13L5 13L5 15L8 15L8 16L6 16L6 17L5 17L5 16L4 16L4 17L5 17L5 18L3 18L3 20L4 20L4 21L3 21L3 22L1 22L1 19L2 19L2 18L1 18L1 17L0 17L0 22L1 22L1 23L2 23L2 24L1 24L1 25L0 25L0 26L2 26L2 27L3 27L3 25L5 25L5 26L6 26L6 27L8 27L8 33L10 33L10 34L9 34L9 35L10 35L10 37L11 37L11 36L12 36L12 37L13 37L13 36L14 36L14 37L16 37L16 36L17 36L17 37L18 37L18 36L17 36L17 35L19 35L19 36L20 36L20 37L21 37L21 36L23 36L23 37L25 37L25 35L24 35L24 36L23 36L23 35L22 35L22 34L23 34L23 32L24 32L24 33L25 33L25 30L26 30L26 29L28 29L28 35L29 35L29 37L31 37L31 36L32 36L32 37L37 37L37 36L36 36L36 34L35 34L35 33L37 33L37 31L36 31L36 30L34 30L34 29L35 29L35 28L36 28L36 29L37 29L37 28L36 28L36 26L35 26L35 27L34 27L34 26L33 26L33 25L32 25L32 23L31 23L31 24L27 24L27 23L28 23L28 20L29 20L29 21L31 21L31 20L29 20L29 19L31 19L31 18L33 18L33 20L34 20L34 21L32 21L32 22L33 22L33 23L34 23L34 25L36 25L36 24L37 24L37 23L36 23L36 24L35 24L35 22L36 22L36 21L35 21L35 20L36 20L36 19L35 19L35 18L33 18L33 17L36 17L36 16L37 16L37 15L36 15L36 12L37 12L37 11L36 11L36 12L35 12L35 10L34 10L34 12L33 12L33 11L32 11L32 10L33 10L33 9L32 9L32 8L30 8L30 9L32 9L32 10L31 10L31 12L30 12L30 10L29 10L29 12L30 12L30 13L27 13L27 12L28 12L28 10L27 10L27 9L28 9L28 8L27 8L27 9L26 9L26 7L27 7L27 6L26 6L26 7L25 7L25 5L24 5L24 4L23 4L23 2L22 2L22 1L21 1L21 0L18 0L18 2L17 2L17 1L15 1L15 0L13 0L13 2L14 2L14 1L15 1L15 3L16 3L16 2L17 2L17 3L18 3L18 4L17 4L17 5L16 5L16 4L15 4L15 5L14 5L14 3L12 3L12 2L11 2L11 0ZM23 0L23 1L24 1L24 3L25 3L25 4L26 4L26 5L28 5L28 7L29 7L29 5L28 5L28 4L27 4L27 3L29 3L29 2L26 2L26 3L25 3L25 1L24 1L24 0ZM27 0L27 1L28 1L28 0ZM19 1L19 2L20 2L20 1ZM11 3L11 4L10 4L10 5L9 5L9 7L10 7L10 10L7 10L7 11L6 11L6 12L5 12L5 13L6 13L6 14L7 14L7 13L6 13L6 12L7 12L7 11L9 11L9 12L8 12L8 15L9 15L9 16L8 16L8 17L6 17L6 18L8 18L8 19L6 19L6 20L7 20L7 21L4 21L4 22L7 22L7 21L9 21L9 18L10 18L10 20L11 20L11 21L12 21L12 22L14 22L14 24L12 24L12 26L11 26L11 22L10 22L10 23L9 23L9 22L8 22L8 25L6 25L6 24L7 24L7 23L6 23L6 24L5 24L5 25L6 25L6 26L9 26L9 30L10 30L10 31L9 31L9 32L10 32L10 33L11 33L11 34L10 34L10 35L11 35L11 34L12 34L12 35L14 35L14 34L15 34L15 35L16 35L16 34L15 34L15 33L17 33L17 34L19 34L19 35L20 35L20 34L22 34L22 32L23 32L23 31L19 31L19 29L20 29L20 30L21 30L21 29L20 29L20 28L19 28L19 27L16 27L16 26L17 26L17 25L18 25L18 26L20 26L20 27L23 27L23 26L24 26L24 25L25 25L25 24L26 24L26 23L27 23L27 22L25 22L25 21L27 21L27 20L28 20L28 19L26 19L26 18L27 18L27 17L26 17L26 16L29 16L29 17L28 17L28 18L29 18L29 17L30 17L30 18L31 18L31 17L30 17L30 16L29 16L29 15L30 15L30 14L32 14L32 13L33 13L33 14L34 14L34 13L33 13L33 12L32 12L32 13L30 13L30 14L28 14L28 15L27 15L27 13L26 13L26 11L27 11L27 10L25 10L25 7L24 7L24 6L23 6L23 7L24 7L24 8L22 8L22 6L21 6L21 4L22 4L22 3L20 3L20 5L18 5L18 6L17 6L17 9L16 9L16 10L15 10L15 8L16 8L16 6L15 6L15 8L14 8L14 6L13 6L13 4L12 4L12 3ZM11 4L11 5L10 5L10 7L11 7L11 6L12 6L12 8L11 8L11 9L13 9L13 6L12 6L12 4ZM18 6L18 8L20 8L20 7L21 7L21 6L20 6L20 7L19 7L19 6ZM8 8L8 9L9 9L9 8ZM21 8L21 10L20 10L20 9L17 9L17 10L16 10L16 11L17 11L17 12L19 12L19 11L21 11L21 12L22 12L22 8ZM35 8L35 9L36 9L36 8ZM0 9L0 10L1 10L1 9ZM23 9L23 10L24 10L24 11L25 11L25 10L24 10L24 9ZM11 10L11 11L10 11L10 12L11 12L11 14L12 14L12 15L10 15L10 16L9 16L9 17L10 17L10 18L11 18L11 17L12 17L12 15L13 15L13 14L15 14L15 13L16 13L16 12L15 12L15 11L14 11L14 10L13 10L13 11L12 11L12 10ZM17 10L17 11L18 11L18 10ZM11 11L11 12L12 12L12 11ZM1 12L1 13L2 13L2 12ZM13 12L13 13L14 13L14 12ZM23 12L23 14L21 14L21 13L19 13L19 14L20 14L20 15L21 15L21 17L22 17L22 18L20 18L20 16L18 16L18 14L17 14L17 15L16 15L16 17L17 17L17 20L18 20L18 21L16 21L16 20L13 20L13 19L14 19L14 18L15 18L15 19L16 19L16 18L15 18L15 15L14 15L14 18L13 18L13 19L12 19L12 21L14 21L14 22L15 22L15 24L14 24L14 26L16 26L16 25L17 25L17 24L16 24L16 23L18 23L18 21L20 21L20 22L19 22L19 24L20 24L20 23L21 23L21 24L22 24L22 26L23 26L23 25L24 25L24 23L25 23L25 22L24 22L24 23L23 23L23 21L22 21L22 18L23 18L23 20L24 20L24 21L25 21L25 18L26 18L26 17L25 17L25 18L24 18L24 16L25 16L25 15L23 15L23 14L26 14L26 13L24 13L24 12ZM9 13L9 14L10 14L10 13ZM31 15L31 16L32 16L32 17L33 17L33 16L34 16L34 15ZM10 16L10 17L11 17L11 16ZM17 16L17 17L18 17L18 16ZM22 16L22 17L23 17L23 16ZM18 18L18 19L19 19L19 18ZM4 19L4 20L5 20L5 19ZM20 20L20 21L21 21L21 23L22 23L22 24L23 24L23 23L22 23L22 21L21 21L21 20ZM15 21L15 22L16 22L16 21ZM34 21L34 22L35 22L35 21ZM2 24L2 25L3 25L3 24ZM9 24L9 25L10 25L10 24ZM20 25L20 26L21 26L21 25ZM26 25L26 27L24 27L24 28L23 28L23 29L22 29L22 30L23 30L23 29L24 29L24 28L25 28L25 29L26 29L26 28L29 28L29 27L27 27L27 25ZM29 25L29 26L32 26L32 27L33 27L33 26L32 26L32 25ZM12 26L12 27L13 27L13 28L14 28L14 30L13 30L13 29L12 29L12 28L11 28L11 27L10 27L10 30L12 30L12 34L14 34L14 32L13 32L13 31L15 31L15 28L16 28L16 27L15 27L15 28L14 28L14 27L13 27L13 26ZM4 27L4 28L3 28L3 29L5 29L5 27ZM0 28L0 29L2 29L2 28ZM6 28L6 29L7 29L7 28ZM17 28L17 31L16 31L16 32L17 32L17 31L18 31L18 33L19 33L19 34L20 34L20 33L21 33L21 32L20 32L20 33L19 33L19 31L18 31L18 28ZM33 28L33 29L34 29L34 28ZM29 29L29 32L32 32L32 29ZM30 30L30 31L31 31L31 30ZM33 31L33 32L34 32L34 31ZM35 31L35 32L36 32L36 31ZM26 32L26 33L27 33L27 32ZM29 33L29 34L30 34L30 33ZM31 33L31 34L32 34L32 36L33 36L33 33ZM34 34L34 35L35 35L35 34ZM26 35L26 36L27 36L27 35ZM30 35L30 36L31 36L31 35ZM0 0L7 0L7 7L0 7ZM1 1L1 6L6 6L6 1ZM2 2L5 2L5 5L2 5ZM30 0L37 0L37 7L30 7ZM31 1L31 6L36 6L36 1ZM32 2L35 2L35 5L32 5ZM0 30L7 30L7 37L0 37ZM1 31L1 36L6 36L6 31ZM2 32L5 32L5 35L2 35Z" fill="#000000"/></g></g></svg>
